# Hierarchical Translation and Rotation (.htr) file
# Generated by EVaRT
[Header]
FileType htr
DataType HTRS
FileVersion 1
NumSegments 23
NumFrames 4
DataFrameRate 120
EulerRotationOrder ZYX
CalibrationUnits mm
RotationUnits Degrees
GlobalAxisofGravity Y
BoneLengthAxis Y
ScaleFactor 1
[SegmentNames&Hierarchy]
#CHILD            PARENT
DaveRoot          GLOBAL
Spine1            DaveRoot
Spine2            Spine1
Spine3            Spine2
Spine4            Spine3
Neck              Spine4
Head              Neck
LClavicle         Spine4
LUpperArm         LClavicle
LLowerArm         LUpperArm
LHand             LLowerArm
RClavicle         Spine4
RUpperArm         RClavicle
RLowerArm         RUpperArm
RHand             RLowerArm
RUpperLeg         DaveRoot
RLowerLeg         RUpperLeg
RFoot             RLowerLeg
RToes             RFoot
LUpperLeg         DaveRoot
LLowerLeg         LUpperLeg
LFoot             LLowerLeg
LToes             LFoot
[BasePosition]
#SegmentName      Tx   Ty   Tz   Rx   Ry   Rz   BoneLength
DaveRoot          1078.678277	988.889323	-667.355416	21.100172	-35.850280	-13.563871	100.000000
Spine1            0.000000	100.000000	0.000000	-14.881963	2.292165	3.740750	100.000000
Spine2            0.000000	100.000000	0.000000	6.530342	0.668586	4.295175	100.000000
Spine3            0.000000	100.000000	0.000000	12.838786	0.191691	4.342582	100.000000
Spine4            0.000000	100.000000	0.000000	14.062130	1.171471	5.872723	100.000000
Neck              0.000000	100.000000	0.000000	7.737895	11.498691	-3.920750	80.000000
Head              0.000000	80.000000	0.000000	-47.820279	-9.378091	-2.499782	200.000000
LClavicle         0.000000	100.000000	0.000000	7.006000	0.163524	-123.648937	200.000000
LUpperArm         0.000000	200.000000	0.000000	39.957204	52.516966	-16.160711	300.000000
LLowerArm         0.000000	300.000000	0.000000	-1.806693	2.175812	1.895763	200.000000
LHand             0.000000	200.000000	0.000000	16.195035	-1.768569	8.793625	120.000000
RClavicle         0.000000	100.000000	0.000000	3.329328	-3.962094	109.315139	200.000000
RUpperArm         0.000000	200.000000	0.000000	31.467517	-27.516660	21.198784	300.000000
RLowerArm         0.000000	300.000000	0.000000	20.023297	-3.682026	-7.348670	200.000000
RHand             0.000000	200.000000	0.000000	6.266882	13.427731	10.826414	120.000000
RUpperLeg         -115.911102	-10.000000	31.058285	22.207319	27.607647	-154.283666	530.000000
RLowerLeg         0.000000	530.000000	0.000000	-15.604109	0.479387	-2.520024	460.000000
RFoot             0.000000	460.000000	0.000000	98.099007	-9.797309	28.788465	130.000000
RToes             0.000000	130.000000	0.000000	-15.148141	0.005479	-0.002881	100.000000
LUpperLeg         115.911102	-10.000000	31.058285	41.660003	-3.682702	-163.432677	530.000000
LLowerLeg         0.000000	530.000000	0.000000	-22.778950	-3.275937	3.046484	460.000000
LFoot             0.000000	460.000000	0.000000	77.647326	-23.190969	-3.622247	130.000000
LToes             0.000000	130.000000	0.000000	14.512714	-0.000000	-0.000086	100.000000
#Beginning of Data.
[DaveRoot]
#Fr	Tx	Ty	Tz	Rx	Ry	Rz	SF
818	-1907.134528	-947.027111	685.426408	84.313393	-14.638720	-95.281519	1.000000	
819	-1908.692051	-945.299189	685.364875	84.090852	-14.405322	-94.456466	1.000000	
820	-1910.211872	-943.550385	685.400051	83.859669	-14.156964	-93.580076	1.000000	
821	-1911.716792	-941.769011	685.507764	83.620984	-13.891102	-92.654230	1.000000	
[Spine1]
#Fr	Tx	Ty	Tz	Rx	Ry	Rz	SF
818	0.000000	0.000000	0.000000	-1.643457	-5.550604	-2.035689	1.000000	
819	0.000000	0.000000	0.000000	-1.680755	-5.511978	-2.047682	1.000000	
820	0.000000	0.000000	0.000000	-1.717747	-5.485521	-2.062474	1.000000	
821	0.000000	0.000000	0.000000	-1.756756	-5.471658	-2.078524	1.000000	
[Spine2]
#Fr	Tx	Ty	Tz	Rx	Ry	Rz	SF
818	0.000000	0.000000	0.000000	-1.643457	-5.550604	-2.035689	1.000000	
819	0.000000	0.000000	0.000000	-1.680755	-5.511978	-2.047682	1.000000	
820	0.000000	0.000000	0.000000	-1.717747	-5.485521	-2.062474	1.000000	
821	0.000000	0.000000	0.000000	-1.756756	-5.471658	-2.078524	1.000000	
[Spine3]
#Fr	Tx	Ty	Tz	Rx	Ry	Rz	SF
818	0.000000	0.000000	0.000000	-1.643457	-5.550604	-2.035689	1.000000	
819	0.000000	0.000000	0.000000	-1.680755	-5.511978	-2.047682	1.000000	
820	0.000000	0.000000	0.000000	-1.717747	-5.485521	-2.062474	1.000000	
821	0.000000	0.000000	0.000000	-1.756756	-5.471658	-2.078524	1.000000	
[Spine4]
#Fr	Tx	Ty	Tz	Rx	Ry	Rz	SF
818	0.000000	0.000000	0.000000	-1.643457	-5.550604	-2.035689	1.000000	
819	0.000000	0.000000	0.000000	-1.680755	-5.511978	-2.047682	1.000000	
820	0.000000	0.000000	0.000000	-1.717747	-5.485521	-2.062474	1.000000	
821	0.000000	0.000000	0.000000	-1.756756	-5.471658	-2.078524	1.000000	
[Neck]
#Fr	Tx	Ty	Tz	Rx	Ry	Rz	SF
818	0.000000	0.000000	0.000000	14.848774	6.516047	20.408111	1.000000	
819	0.000000	0.000000	0.000000	14.766754	6.709112	20.481858	1.000000	
820	0.000000	0.000000	0.000000	14.679661	6.897008	20.542777	1.000000	
821	0.000000	0.000000	0.000000	14.597443	7.070521	20.587762	1.000000	
[Head]
#Fr	Tx	Ty	Tz	Rx	Ry	Rz	SF
818	0.000000	0.000000	0.000000	14.848774	6.516047	20.408111	1.000000	
819	0.000000	0.000000	0.000000	14.766754	6.709112	20.481858	1.000000	
820	0.000000	0.000000	0.000000	14.679661	6.897008	20.542777	1.000000	
821	0.000000	0.000000	0.000000	14.597443	7.070521	20.587762	1.000000	
[LClavicle]
#Fr	Tx	Ty	Tz	Rx	Ry	Rz	SF
818	0.000000	0.000000	0.000000	-5.678829	2.355194	41.780798	1.000000	
819	0.000000	0.000000	0.000000	-5.349385	2.207492	41.687961	1.000000	
820	0.000000	0.000000	0.000000	-5.011801	2.053488	41.552398	1.000000	
821	0.000000	0.000000	0.000000	-4.677436	1.900536	41.392405	1.000000	
[LUpperArm]
#Fr	Tx	Ty	Tz	Rx	Ry	Rz	SF
818	0.000000	0.000000	0.000000	-60.527231	80.861678	44.957259	1.000000	
819	0.000000	0.000000	0.000000	-58.687307	80.938925	46.953759	1.000000	
820	0.000000	0.000000	0.000000	-57.523094	81.062860	48.287975	1.000000	
821	0.000000	0.000000	0.000000	-56.826908	81.228842	49.144107	1.000000	
[LLowerArm]
#Fr	Tx	Ty	Tz	Rx	Ry	Rz	SF
818	0.000000	0.000000	0.000000	-83.949877	0.000000	0.000000	1.000000	
819	0.000000	0.000000	0.000000	-83.598826	0.000000	0.000000	1.000000	
820	0.000000	0.000000	0.000000	-83.183299	0.000000	0.000000	1.000000	
821	0.000000	0.000000	0.000000	-82.735955	0.000000	0.000000	1.000000	
[LHand]
#Fr	Tx	Ty	Tz	Rx	Ry	Rz	SF
818	0.000000	0.000000	0.000000	14.782141	-0.000000	0.000000	1.000000	
819	0.000000	0.000000	0.000000	14.727281	-0.000000	0.000000	1.000000	
820	0.000000	0.000000	0.000000	14.620971	-0.000000	0.000000	1.000000	
821	0.000000	0.000000	0.000000	14.481647	-0.000000	0.000000	1.000000	
[RClavicle]
#Fr	Tx	Ty	Tz	Rx	Ry	Rz	SF
818	0.000000	0.000000	0.000000	9.162745	-0.531271	1.774210	1.000000	
819	0.000000	0.000000	0.000000	9.218138	-0.507888	1.610514	1.000000	
820	0.000000	0.000000	0.000000	9.275519	-0.478871	1.413697	1.000000	
821	0.000000	0.000000	0.000000	9.335069	-0.444633	1.186939	1.000000	
[RUpperArm]
#Fr	Tx	Ty	Tz	Rx	Ry	Rz	SF
818	0.000000	0.000000	0.000000	48.382069	56.481826	-21.834810	1.000000	
819	0.000000	0.000000	0.000000	48.481899	55.898032	-22.005373	1.000000	
820	0.000000	0.000000	0.000000	48.581301	55.326138	-22.160943	1.000000	
821	0.000000	0.000000	0.000000	48.689472	54.757013	-22.291370	1.000000	
[RLowerArm]
#Fr	Tx	Ty	Tz	Rx	Ry	Rz	SF
818	0.000000	0.000000	0.000000	53.346459	0.000000	0.000000	1.000000	
819	0.000000	0.000000	0.000000	53.202509	0.000000	0.000000	1.000000	
820	0.000000	0.000000	0.000000	53.019888	0.000000	0.000000	1.000000	
821	0.000000	0.000000	0.000000	52.785742	0.000000	0.000000	1.000000	
[RHand]
#Fr	Tx	Ty	Tz	Rx	Ry	Rz	SF
818	0.000000	0.000000	0.000000	30.497929	-34.080597	-52.981318	1.000000	
819	0.000000	0.000000	0.000000	30.138692	-33.878227	-52.457913	1.000000	
820	0.000000	0.000000	0.000000	29.909184	-33.719425	-52.044850	1.000000	
821	0.000000	0.000000	0.000000	29.813792	-33.633866	-51.765853	1.000000	
[RUpperLeg]
#Fr	Tx	Ty	Tz	Rx	Ry	Rz	SF
818	0.000000	0.000000	0.000000	8.202540	-32.569744	-4.751051	1.000000	
819	0.000000	0.000000	0.000000	8.351526	-32.993241	-4.827773	1.000000	
820	0.000000	0.000000	0.000000	8.531548	-33.446557	-4.931288	1.000000	
821	0.000000	0.000000	0.000000	8.748089	-33.922306	-5.060288	1.000000	
[RLowerLeg]
#Fr	Tx	Ty	Tz	Rx	Ry	Rz	SF
818	0.000000	0.000000	0.000000	-31.997766	-0.000000	0.000000	1.000000	
819	0.000000	0.000000	0.000000	-31.707504	-0.000000	0.000000	1.000000	
820	0.000000	0.000000	0.000000	-31.313318	-0.000000	0.000000	1.000000	
821	0.000000	0.000000	0.000000	-30.831549	-0.000000	0.000000	1.000000	
[RFoot]
#Fr	Tx	Ty	Tz	Rx	Ry	Rz	SF
818	0.000000	0.000000	0.000000	-18.667905	-41.584707	-12.691137	1.000000	
819	0.000000	0.000000	0.000000	-19.574058	-40.854493	-12.576853	1.000000	
820	0.000000	0.000000	0.000000	-20.757310	-40.102270	-12.396177	1.000000	
821	0.000000	0.000000	0.000000	-22.200939	-39.369647	-12.127741	1.000000	
[RToes]
#Fr	Tx	Ty	Tz	Rx	Ry	Rz	SF
818	0.000000	0.000000	0.000000	35.609140	0.000000	0.000000	1.000000	
819	0.000000	0.000000	0.000000	35.613972	0.000000	0.000000	1.000000	
820	0.000000	0.000000	0.000000	35.635672	0.000000	0.000000	1.000000	
821	0.000000	0.000000	0.000000	35.645879	0.000000	0.000000	1.000000	
[LUpperLeg]
#Fr	Tx	Ty	Tz	Rx	Ry	Rz	SF
818	0.000000	0.000000	0.000000	-5.290447	-0.156865	-14.641954	1.000000	
819	0.000000	0.000000	0.000000	-5.355373	0.197756	-14.798253	1.000000	
820	0.000000	0.000000	0.000000	-5.424717	0.616290	-14.987003	1.000000	
821	0.000000	0.000000	0.000000	-5.493740	1.100130	-15.207073	1.000000	
[LLowerLeg]
#Fr	Tx	Ty	Tz	Rx	Ry	Rz	SF
818	0.000000	0.000000	0.000000	-32.224690	0.000000	0.000000	1.000000	
819	0.000000	0.000000	0.000000	-32.133882	0.000000	0.000000	1.000000	
820	0.000000	0.000000	0.000000	-31.993190	0.000000	0.000000	1.000000	
821	0.000000	0.000000	0.000000	-31.812363	0.000000	0.000000	1.000000	
[LFoot]
#Fr	Tx	Ty	Tz	Rx	Ry	Rz	SF
818	0.000000	0.000000	0.000000	6.641155	-5.265410	-25.345943	1.000000	
819	0.000000	0.000000	0.000000	6.733045	-4.781489	-25.994959	1.000000	
820	0.000000	0.000000	0.000000	6.697760	-4.571642	-26.574878	1.000000	
821	0.000000	0.000000	0.000000	6.530945	-4.544223	-27.055246	1.000000	
[LToes]
#Fr	Tx	Ty	Tz	Rx	Ry	Rz	SF
818	0.000000	0.000000	0.000000	11.523133	0.000000	0.000000	1.000000	
819	0.000000	0.000000	0.000000	10.973539	0.000000	0.000000	1.000000	
820	0.000000	0.000000	0.000000	10.542336	0.000000	0.000000	1.000000	
821	0.000000	0.000000	0.000000	10.342660	0.000000	0.000000	1.000000	
